<svg width="64" height="48" viewBox="0 0 64 48" fill="none" xmlns="http://www.w3.org/2000/svg">
<path d="M52.9936 1.58005L48.9403 4.74672L31.682 17.5717L14.4236 4.62005L10.3703 1.45338C9.41542 0.663442 8.24975 0.171009 7.01772 0.0370907C5.7857 -0.0968276 4.54145 0.133654 3.43913 0.699981C2.33682 1.26631 1.42488 2.14359 0.816286 3.22315C0.207696 4.30271 -0.0707975 5.53709 0.0153089 6.77338V43.475C0.0153089 44.6172 0.469046 45.7127 1.2767 46.5203C2.08436 47.328 3.17978 47.7817 4.32198 47.7817H14.4236V23.335L31.682 36.2867L48.9403 23.335V47.7817H59.042C60.1842 47.7817 61.2796 47.328 62.0872 46.5203C62.8949 45.7127 63.3486 44.6172 63.3486 43.475V6.77338C63.4081 5.54776 63.1102 4.33126 62.4913 3.27175C61.8723 2.21225 60.9589 1.35536 59.862 0.805262C58.7652 0.255162 57.5322 0.0355367 56.3128 0.173083C55.0935 0.310629 53.9404 0.799423 52.9936 1.58005Z" fill="#6D001A"/>
</svg>
